<svg xmlns="http://www.w3.org/2000/svg" xmlns:xlink="http://www.w3.org/1999/xlink" width="80" height="100"><defs><path id="a" d="M0 .282h80V99H0z"/></defs><g fill="none" fill-rule="evenodd"><g transform="translate(0 .718)"><mask id="b" fill="#fff"><use xlink:href="#a"/></mask><path fill="#05412E" d="M67.46 72.192c.002.004-.09.094-.13.256l-.005.015c-1.601 6.72-4.967 12.787-9.66 17.594a36.924 36.924 0 01-8.619 6.681A17.595 17.595 0 0140.452 99c-2.98 0-5.951-.78-8.592-2.262a36.77 36.77 0 01-8.222-6.274l-.133-.135c-4.541-4.559-7.87-10.28-9.608-16.635l-.004-.004c-.061-.22-.182-.297-.182-.297C5.306 66.35 0 55.875 0 43.683 0 23.108 15.463 5.056 36.27 3.067l1.566-1.747A3.135 3.135 0 0140.255.283C50.519.571 61.147 5.09 68.368 12.528c6.689 6.887 10.704 15.756 11.46 25.212.187 1.94.224 3.924.1 5.942-.692 11.414-5.207 21.454-12.468 28.51z" mask="url(#b)"/></g><path fill="#8DC73F" d="M76.378 41.23c-.002-.173-.007-.346-.012-.522l-.001-.024c-.28-9.654-4.213-18.752-11.073-25.62C58.57 8.336 49.737 4.474 40.349 4.139a.451.451 0 00-.351.15L36.76 7.882a.328.328 0 00.016.456l3.689 3.54c.09.088.21.136.337.135 9.339-.028 18.07 3.302 24.63 9.404 5.666 5.27 9.285 12.22 10.43 19.892.049.318.52.282.516-.04l-.001-.038"/><path fill="#8DC73F" d="M31.25 24.165a31.812 31.812 0 019.923-1.456c3.465.044 6.895.648 10.209 1.8a.825.825 0 00.515.008l3.195-.999a.403.403 0 00.276-.457l-.719-3.998a.54.54 0 00-.327-.406c-3.738-1.537-7.938-2.374-12.209-2.428-3.506-.044-6.885.434-10.048 1.423-8.111 2.537-14.752 8.446-18.699 16.638a35.7 35.7 0 00-3 9.413c-.027.158.199.22.257.07 3.481-9.14 10.815-16.539 20.627-19.608m33.978 47.181c-.002.004-.002.01-.005.016-2.062 10.227-8.396 18.76-16.972 23.614-.555.314-1.122.587-1.699.824-1.528.76-3.696 1.232-6.1 1.232-2.401 0-4.569-.473-6.095-1.232a14.642 14.642 0 01-1.703-.824c-8.577-4.855-14.91-13.387-16.969-23.614-.003-.006-.003-.012-.005-.016-4.315-20.132 3.359-30.889 3.359-30.889 4.037-7.545 12.612-11.617 21.413-11.617 8.802 0 17.377 4.072 21.414 11.617 0 0 7.672 10.757 3.362 30.89"/><path fill="#05412E" d="M17.82 53.094c-.27.342.107.77.468.532a24.422 24.422 0 017.074-3.175c2.63-.712 5.19-.947 7.526-.764.41.032.6-.544.24-.72-2.36-1.15-5.209-1.455-8.13-.665-2.908.788-5.4 2.533-7.179 4.792m38.088-4.792c-2.92-.79-5.769-.484-8.128.666-.36.175-.17.75.238.719 2.336-.183 4.897.052 7.527.764a24.416 24.416 0 017.073 3.175c.36.239.74-.19.47-.532-1.78-2.26-4.272-4.004-7.18-4.792M34.103 70.994c-.235-.073-.419.208-.255.392 1.586 1.775 3.956 2.902 6.605 2.902 2.647 0 5.016-1.127 6.603-2.902.164-.184-.02-.466-.256-.392-1.896.599-4.056.937-6.347.937-2.292 0-4.453-.338-6.35-.937m-4.607-16.89c-3.418-.92-7.32.777-8.978 3.575-.255.419.19.718.527.402 1.087-1.012 2.472-1.723 3.94-2.056a3.255 3.255 0 002.923 5.361 3.256 3.256 0 002.346-4.86c1.815.83 3.077 2.275 3.582 3.74.113.322.647.245.676-.112.213-2.323-1.548-5.185-5.016-6.05M59.86 58.08c-1.086-1.012-2.473-1.723-3.94-2.056.602.689.912 1.63.77 2.607a3.257 3.257 0 11-6.041-2.102c-1.816.828-3.073 2.27-3.58 3.736-.11.322-.645.245-.677-.112-.213-2.323 1.55-5.185 5.02-6.05 3.415-.92 7.318.777 8.977 3.575.255.419-.188.718-.529.402M40.821 78.388c4.173-.032 8.32-.54 12.385-1.479.675-.156 1.511-.069 1.525.846.014 1.031-.629 2.343-1.09 3.233-1.267 2.446-3.322 4.464-5.698 5.836a15.094 15.094 0 01-7.49 2.011 15.1 15.1 0 01-7.49-2.01c-2.376-1.373-4.43-3.39-5.698-5.837-.46-.89-1.104-2.202-1.09-3.233.014-.915.85-1.002 1.526-.846a56.94 56.94 0 0012.385 1.48h.735z"/><path fill="#FFF" d="M40.453 86.031c4.975.026 9.296-2.622 11.026-5.53.302-.504-.104-.9-.754-.74a43.331 43.331 0 01-20.545 0c-.649-.16-1.055.236-.753.74 1.73 2.908 6.05 5.556 11.026 5.53"/></g></svg>